HIERARCHY
ROOT Character1_Hips
{
	OFFSET 0.000000 86.858185 1.182688
	CHANNELS 6 Xposition Yposition Zposition Xrotation Yrotation Zrotation
	JOINT Character1_LeftUpLeg
	{
		OFFSET 7.276832 -6.057800 0.207883
		CHANNELS 6 Xposition Yposition Zposition Xrotation Yrotation Zrotation
		JOINT Character1_LeftLeg
		{
			OFFSET -1.823140 -35.110466 -1.568847
			CHANNELS 6 Xposition Yposition Zposition Xrotation Yrotation Zrotation
			JOINT Character1_LeftFoot
			{
				OFFSET -1.031196 -37.817070 -1.726818
				CHANNELS 6 Xposition Yposition Zposition Xrotation Yrotation Zrotation
				JOINT Character1_LeftToeBase
				{
					OFFSET 0.202457 -5.287532 8.122427
					CHANNELS 6 Xposition Yposition Zposition Xrotation Yrotation Zrotation
					End Site
					{
						OFFSET 0.009223 0.000047 9.693953
					}
				}
			}
		}
	}
	JOINT Character1_RightUpLeg
	{
		OFFSET -7.276832 -6.057770 0.207879
		CHANNELS 6 Xposition Yposition Zposition Xrotation Yrotation Zrotation
		JOINT Character1_RightLeg
		{
			OFFSET 1.823196 -35.109627 -1.587624
			CHANNELS 6 Xposition Yposition Zposition Xrotation Yrotation Zrotation
			JOINT Character1_RightFoot
			{
				OFFSET 1.031267 -37.817833 -1.710079
				CHANNELS 6 Xposition Yposition Zposition Xrotation Yrotation Zrotation
				JOINT Character1_RightToeBase
				{
					OFFSET -0.202449 -5.287759 8.122276
					CHANNELS 6 Xposition Yposition Zposition Xrotation Yrotation Zrotation
					End Site
					{
						OFFSET 0.001154 -0.000006 9.693956
					}
				}
			}
		}
	}
	JOINT Character1_Spine
	{
		OFFSET -0.000001 2.271347 0.818150
		CHANNELS 6 Xposition Yposition Zposition Xrotation Yrotation Zrotation
		JOINT Character1_Spine1
		{
			OFFSET -0.000001 9.085945 0.955446
			CHANNELS 6 Xposition Yposition Zposition Xrotation Yrotation Zrotation
			JOINT Character1_Spine2
			{
				OFFSET -0.000002 8.765564 -0.142866
				CHANNELS 6 Xposition Yposition Zposition Xrotation Yrotation Zrotation
				JOINT Character1_LeftShoulder
				{
					OFFSET 4.211487 11.612236 -3.873799
					CHANNELS 6 Xposition Yposition Zposition Xrotation Yrotation Zrotation
					JOINT Character1_LeftArm
					{
						OFFSET 5.543700 0.000031 -0.000005
						CHANNELS 6 Xposition Yposition Zposition Xrotation Yrotation Zrotation
						JOINT Character1_LeftForeArm
						{
							OFFSET 23.377409 -0.123474 0.033367
							CHANNELS 6 Xposition Yposition Zposition Xrotation Yrotation Zrotation
							JOINT Character1_LeftHand
							{
								OFFSET 16.247719 -0.118858 0.035829
								CHANNELS 6 Xposition Yposition Zposition Xrotation Yrotation Zrotation
								JOINT Character1_LeftHandThumb1
								{
									OFFSET 2.510399 -0.904045 2.091601
									CHANNELS 6 Xposition Yposition Zposition Xrotation Yrotation Zrotation
									JOINT Character1_LeftHandThumb2
									{
										OFFSET 2.570465 -1.130470 1.584520
										CHANNELS 6 Xposition Yposition Zposition Xrotation Yrotation Zrotation
										JOINT Character1_LeftHandThumb3
										{
											OFFSET 1.420841 -0.605858 0.842600
											CHANNELS 6 Xposition Yposition Zposition Xrotation Yrotation Zrotation
											JOINT Character1_LeftHandThumb4
											{
												OFFSET 2.153469 -0.757797 1.312965
												CHANNELS 6 Xposition Yposition Zposition Xrotation Yrotation Zrotation
												End Site
												{
													OFFSET 2.158772 -0.733734 1.317914
												}
											}
										}
									}
								}
								JOINT Character1_LeftHandIndex1
								{
									OFFSET 8.043888 0.989311 2.480770
									CHANNELS 6 Xposition Yposition Zposition Xrotation Yrotation Zrotation
									JOINT Character1_LeftHandIndex2
									{
										OFFSET 2.427021 0.011856 0.268371
										CHANNELS 6 Xposition Yposition Zposition Xrotation Yrotation Zrotation
										JOINT Character1_LeftHandIndex3
										{
											OFFSET 1.609932 0.007866 0.037315
											CHANNELS 6 Xposition Yposition Zposition Xrotation Yrotation Zrotation
											JOINT Character1_LeftHandIndex4
											{
												OFFSET 2.130016 0.049431 0.114431
												CHANNELS 6 Xposition Yposition Zposition Xrotation Yrotation Zrotation
												End Site
												{
													OFFSET 2.119099 0.211617 -0.131005
												}
											}
										}
									}
								}
								JOINT Character1_LeftHandMiddle1
								{
									OFFSET 8.038177 1.007423 0.439338
									CHANNELS 6 Xposition Yposition Zposition Xrotation Yrotation Zrotation
									JOINT Character1_LeftHandMiddle2
									{
										OFFSET 2.527046 -0.234444 -0.080977
										CHANNELS 6 Xposition Yposition Zposition Xrotation Yrotation Zrotation
										JOINT Character1_LeftHandMiddle3
										{
											OFFSET 1.931313 -0.179352 -0.117768
											CHANNELS 6 Xposition Yposition Zposition Xrotation Yrotation Zrotation
											JOINT Character1_LeftHandMiddle4
											{
												OFFSET 2.196999 0.041229 -0.161456
												CHANNELS 6 Xposition Yposition Zposition Xrotation Yrotation Zrotation
												End Site
												{
													OFFSET 2.197571 -0.071640 -0.141814
												}
											}
										}
									}
								}
								JOINT Character1_LeftHandRing1
								{
									OFFSET 7.662090 0.616508 -1.366725
									CHANNELS 6 Xposition Yposition Zposition Xrotation Yrotation Zrotation
									JOINT Character1_LeftHandRing2
									{
										OFFSET 2.249855 -0.592636 -0.461933
										CHANNELS 6 Xposition Yposition Zposition Xrotation Yrotation Zrotation
										JOINT Character1_LeftHandRing3
										{
											OFFSET 1.521790 -0.400856 -0.248318
											CHANNELS 6 Xposition Yposition Zposition Xrotation Yrotation Zrotation
											JOINT Character1_LeftHandRing4
											{
												OFFSET 2.446365 -0.396080 -0.528466
												CHANNELS 6 Xposition Yposition Zposition Xrotation Yrotation Zrotation
												End Site
												{
													OFFSET 2.437840 -0.527443 -0.446790
												}
											}
										}
									}
								}
								JOINT Character1_LeftHandPinky1
								{
									OFFSET 6.585136 -0.139000 -2.766160
									CHANNELS 6 Xposition Yposition Zposition Xrotation Yrotation Zrotation
									JOINT Character1_LeftHandPinky2
									{
										OFFSET 1.631428 -0.600632 -0.502815
										CHANNELS 6 Xposition Yposition Zposition Xrotation Yrotation Zrotation
										JOINT Character1_LeftHandPinky3
										{
											OFFSET 1.227242 -0.468956 -0.457904
											CHANNELS 6 Xposition Yposition Zposition Xrotation Yrotation Zrotation
											JOINT Character1_LeftHandPinky4
											{
												OFFSET 1.696033 -0.584229 -0.687828
												CHANNELS 6 Xposition Yposition Zposition Xrotation Yrotation Zrotation
												End Site
												{
													OFFSET 1.705387 -0.567787 -0.678411
												}
											}
										}
									}
								}
							}
						}
					}
				}
				JOINT Character1_RightShoulder
				{
					OFFSET -4.211487 11.612236 -3.873799
					CHANNELS 6 Xposition Yposition Zposition Xrotation Yrotation Zrotation
					JOINT Character1_RightArm
					{
						OFFSET -5.543744 0.000023 -0.000004
						CHANNELS 6 Xposition Yposition Zposition Xrotation Yrotation Zrotation
						JOINT Character1_RightForeArm
						{
							OFFSET -23.377581 -0.123566 0.033386
							CHANNELS 6 Xposition Yposition Zposition Xrotation Yrotation Zrotation
							JOINT Character1_RightHand
							{
								OFFSET -16.247574 -0.118851 0.036247
								CHANNELS 6 Xposition Yposition Zposition Xrotation Yrotation Zrotation
								JOINT Character1_RightHandThumb1
								{
									OFFSET -2.510384 -0.904091 2.091566
									CHANNELS 6 Xposition Yposition Zposition Xrotation Yrotation Zrotation
									JOINT Character1_RightHandThumb2
									{
										OFFSET -2.579426 -1.121681 1.537416
										CHANNELS 6 Xposition Yposition Zposition Xrotation Yrotation Zrotation
										JOINT Character1_RightHandThumb3
										{
											OFFSET -1.429546 -0.616760 0.819528
											CHANNELS 6 Xposition Yposition Zposition Xrotation Yrotation Zrotation
											JOINT Character1_RightHandThumb4
											{
												OFFSET -2.167622 -0.774658 1.279505
												CHANNELS 6 Xposition Yposition Zposition Xrotation Yrotation Zrotation
												End Site
												{
													OFFSET -2.137974 -0.606712 1.413074
												}
											}
										}
									}
								}
								JOINT Character1_RightHandIndex1
								{
									OFFSET -8.043800 0.988876 2.481294
									CHANNELS 6 Xposition Yposition Zposition Xrotation Yrotation Zrotation
									JOINT Character1_RightHandIndex2
									{
										OFFSET -2.426987 0.011948 0.268470
										CHANNELS 6 Xposition Yposition Zposition Xrotation Yrotation Zrotation
										JOINT Character1_RightHandIndex3
										{
											OFFSET -1.609989 0.007927 0.037374
											CHANNELS 6 Xposition Yposition Zposition Xrotation Yrotation Zrotation
											JOINT Character1_RightHandIndex4
											{
												OFFSET -2.129982 0.049034 0.114512
												CHANNELS 6 Xposition Yposition Zposition Xrotation Yrotation Zrotation
												End Site
												{
													OFFSET -2.123772 0.204735 0.006035
												}
											}
										}
									}
								}
								JOINT Character1_RightHandMiddle1
								{
									OFFSET -8.038174 1.006859 0.439860
									CHANNELS 6 Xposition Yposition Zposition Xrotation Yrotation Zrotation
									JOINT Character1_RightHandMiddle2
									{
										OFFSET -2.526997 -0.234062 -0.080875
										CHANNELS 6 Xposition Yposition Zposition Xrotation Yrotation Zrotation
										JOINT Character1_RightHandMiddle3
										{
											OFFSET -1.931465 -0.179070 -0.117694
											CHANNELS 6 Xposition Yposition Zposition Xrotation Yrotation Zrotation
											JOINT Character1_RightHandMiddle4
											{
												OFFSET -2.196987 0.042816 -0.161370
												CHANNELS 6 Xposition Yposition Zposition Xrotation Yrotation Zrotation
												End Site
												{
													OFFSET -2.184029 -0.187660 -0.222307
												}
											}
										}
									}
								}
								JOINT Character1_RightHandRing1
								{
									OFFSET -7.662136 0.615837 -1.366219
									CHANNELS 6 Xposition Yposition Zposition Xrotation Yrotation Zrotation
									JOINT Character1_RightHandRing2
									{
										OFFSET -2.249901 -0.592049 -0.461829
										CHANNELS 6 Xposition Yposition Zposition Xrotation Yrotation Zrotation
										JOINT Character1_RightHandRing3
										{
											OFFSET -1.521889 -0.400475 -0.248259
											CHANNELS 6 Xposition Yposition Zposition Xrotation Yrotation Zrotation
											JOINT Character1_RightHandRing4
											{
												OFFSET -2.446423 -0.395401 -0.528361
												CHANNELS 6 Xposition Yposition Zposition Xrotation Yrotation Zrotation
												End Site
												{
													OFFSET -2.430859 -0.503899 -0.507441
												}
											}
										}
									}
								}
								JOINT Character1_RightHandPinky1
								{
									OFFSET -6.585262 -0.139153 -2.765680
									CHANNELS 6 Xposition Yposition Zposition Xrotation Yrotation Zrotation
									JOINT Character1_RightHandPinky2
									{
										OFFSET -1.631413 -0.601036 -0.502742
										CHANNELS 6 Xposition Yposition Zposition Xrotation Yrotation Zrotation
										JOINT Character1_RightHandPinky3
										{
											OFFSET -1.227207 -0.469040 -0.457860
											CHANNELS 6 Xposition Yposition Zposition Xrotation Yrotation Zrotation
											JOINT Character1_RightHandPinky4
											{
												OFFSET -1.696110 -0.584045 -0.687750
												CHANNELS 6 Xposition Yposition Zposition Xrotation Yrotation Zrotation
												End Site
												{
													OFFSET -1.689350 -0.584435 -0.703875
												}
											}
										}
									}
								}
							}
						}
					}
				}
				JOINT Character1_Neck
				{
					OFFSET -0.000001 15.167763 -4.080687
					CHANNELS 6 Xposition Yposition Zposition Xrotation Yrotation Zrotation
					JOINT Character1_Head
					{
						OFFSET -0.000001 7.825302 -0.202157
						CHANNELS 6 Xposition Yposition Zposition Xrotation Yrotation Zrotation
						End Site
						{
							OFFSET -0.242856 15.320236 -2.107584
						}
					}
				}
				JOINT J_R_Mune_00
				{
					OFFSET -2.925001 2.684891 0.061887
					CHANNELS 6 Xposition Yposition Zposition Xrotation Yrotation Zrotation
					JOINT J_R_Mune_01
					{
						OFFSET -7.794388 2.801010 16.635391
						CHANNELS 6 Xposition Yposition Zposition Xrotation Yrotation Zrotation
						JOINT J_R_Mune_02
						{
							OFFSET 6.838630 -2.377007 -14.605499
							CHANNELS 6 Xposition Yposition Zposition Xrotation Yrotation Zrotation
							End Site
							{
								OFFSET -14.795670 -0.834061 -6.791919
							}
						}
					}
				}
				JOINT J_L_Mune_00
				{
					OFFSET 2.925019 2.684776 0.061883
					CHANNELS 6 Xposition Yposition Zposition Xrotation Yrotation Zrotation
					JOINT J_L_Mune_01
					{
						OFFSET 7.794374 2.801254 16.635433
						CHANNELS 6 Xposition Yposition Zposition Xrotation Yrotation Zrotation
						JOINT J_L_Mune_02
						{
							OFFSET -6.838619 -2.376648 -14.605538
							CHANNELS 3 Xrotation Yrotation Zrotation
							End Site
							{
								OFFSET 14.795649 -0.834076 -6.791907
							}
						}
					}
				}
			}
		}
	}
}
MOTION
Frames: 3
Frame Time: 0.033333
4.303289 86.362167 5.770244 -1.392384 7.683463 0.398965 7.276834 -6.057797 0.207884 6.067914 -12.638330 4.120553 -1.823139 -35.110466 -1.568848 4.757381 16.999142 0.087537 -1.031193 -37.817074 -1.726820 -7.935097 0.901533 -5.970113 0.202458 -5.287532 8.122425 0.000009 0.000231 -0.013468 -7.276832 -6.057769 0.207878 1.202217 0.224086 -10.127600 1.823195 -35.109623 -1.587623 3.373700 -0.553930 0.571712 1.031263 -37.817833 -1.710082 -2.966981 -0.750192 9.375604 -0.202449 -5.287760 8.122277 0.000063 -0.000180 -0.222323 -0.000001 2.271332 0.818148 -0.000001 -0.000136 0.000217 -0.000001 9.085944 0.955447 -3.694422 -1.432490 0.048514 -0.000003 8.765566 -0.142867 3.373694 0.071621 1.218554 4.211488 11.612233 -3.873801 0.000079 -0.000323 -2.457646 5.543688 0.000034 -0.000007 22.531467 -4.644337 -69.771339 23.377401 -0.123460 0.033362 -13.704768 -20.182813 -1.977696 16.247715 -0.118859 0.035832 3.689573 -5.480227 14.903261 2.510393 -0.904058 2.091604 -2.573578 -1.715452 7.432001 2.570464 -1.130476 1.584520 4.641389 14.920085 2.293029 1.420848 -0.605855 0.842591 5.373644 23.291297 2.709272 2.153468 -0.757795 1.312959 -0.000546 0.001072 -0.006103 8.043891 0.989292 2.480771 3.066889 13.710524 1.532265 2.427010 0.011874 0.268370 0.423003 -0.045502 -18.415551 1.609942 0.007853 0.037315 1.369417 0.272062 -24.433096 2.130012 0.049431 0.114428 -0.003204 -0.004228 -0.000942 8.038167 1.007421 0.439340 -0.329515 1.965109 -5.254550 2.527041 -0.234447 -0.080974 -1.320160 0.340336 -23.304735 1.931312 -0.179342 -0.117770 -2.195067 0.974692 -33.186369 2.196994 0.041207 -0.161454 -0.003065 -0.003991 0.001109 7.662085 0.616499 -1.366724 -11.465100 -5.992461 -0.178490 2.249866 -0.592647 -0.461928 -0.738308 1.112434 -28.734053 1.521782 -0.400852 -0.248314 -6.831732 4.426411 -25.212414 2.446358 -0.396075 -0.528469 -0.003513 -0.001516 0.000851 6.585133 -0.139005 -2.766155 -6.188489 -18.307928 5.996280 1.631431 -0.600636 -0.502818 -3.494344 1.741864 -11.170007 1.227232 -0.468948 -0.457903 -10.862895 8.683078 -35.889297 1.696025 -0.584231 -0.687827 -0.000640 -0.000264 -0.000267 -4.211485 11.612233 -3.873801 0.000189 0.000210 -0.000123 -5.543731 0.000018 -0.000004 18.378963 -6.249924 69.708043 -23.377581 -0.123553 0.033389 -21.256747 15.839496 2.474032 -16.247564 -0.118857 0.036249 18.814895 -3.706386 -1.482804 -2.510392 -0.904105 2.091562 -7.055645 -0.039548 -13.731465 -2.579424 -1.121686 1.537411 6.117671 -19.520465 -2.673265 -1.429540 -0.616756 0.819530 7.326711 -30.564854 -3.014684 -2.167615 -0.774656 1.279517 0.009685 0.003705 -0.006377 -8.043807 0.988864 2.481297 2.009602 -9.925580 11.498713 -2.426980 0.011951 0.268469 0.065818 -0.000174 28.214082 -1.609997 0.007924 0.037372 0.000550 -0.000293 5.297959 -2.129973 0.049041 0.114510 -0.001073 -0.008916 0.004631 -8.038176 1.006858 0.439861 1.626860 0.054645 4.583778 -2.527003 -0.234065 -0.080877 -1.121626 -0.260957 37.373388 -1.931449 -0.179053 -0.117690 -1.771965 -1.184781 47.582619 -2.196996 0.042808 -0.161369 -0.000956 -0.002843 -0.003736 -7.662142 0.615843 -1.366217 -0.911349 14.832060 6.673515 -2.249894 -0.592029 -0.461827 -0.411914 -0.168551 26.029933 -1.521874 -0.400470 -0.248248 -4.277732 -1.878521 44.397213 -2.446437 -0.395384 -0.528370 0.004801 0.000933 0.007234 -6.585264 -0.139153 -2.765679 -20.673649 14.545339 1.425844 -1.631425 -0.601040 -0.502742 -4.387696 -2.335225 14.215274 -1.227203 -0.469042 -0.457861 -10.411768 -11.507387 39.806701 -1.696091 -0.584047 -0.687752 0.004163 0.003750 -0.005263 0.000000 15.167768 -4.080688 2.506394 -3.196696 -2.737878 -0.000001 7.825323 -0.202156 2.510090 -3.097531 -2.829013 -2.925000 2.684899 0.061885 -0.000002 -0.000000 0.000000 -7.794387 2.801010 16.635386 0.000000 -0.000002 0.000000 6.838626 -2.376999 -14.605493 -0.000001 0.000002 0.000000 2.925020 2.684791 0.061879 0.000001 0.000000 0.000000 7.794374 2.801263 16.635427 -0.000002 -0.000000 0.000001 0.000000 0.000007 0.000000 
4.307678 85.380531 5.361835 -1.378856 7.377505 0.397219 7.276832 -6.057800 0.207883 -1.689127 -13.128406 3.124995 -1.823139 -35.110466 -1.568847 19.310605 15.422984 -0.985826 -1.031195 -37.817070 -1.726820 -14.610388 1.642186 -7.241849 0.202458 -5.287531 8.122426 0.000060 0.000174 -0.013524 -7.276833 -6.057770 0.207879 -6.641594 1.681365 -10.098014 1.823193 -35.109615 -1.587621 18.039882 0.484930 0.435689 1.031263 -37.817833 -1.710082 -9.792816 -1.496817 9.501094 -0.202447 -5.287759 8.122276 0.000084 -0.000237 -0.222316 -0.000002 2.271342 0.818149 0.687270 0.098753 -0.023701 -0.000000 9.085942 0.955445 -1.954883 -1.490065 0.077545 -0.000003 8.765548 -0.142870 5.112228 0.014332 1.232770 4.211487 11.612250 -3.873793 0.000104 -0.000310 -2.457633 5.543697 0.000032 -0.000006 21.092823 -0.654202 -63.757719 23.377422 -0.123487 0.033370 -16.109194 -16.714636 -2.424434 16.247721 -0.118844 0.035828 5.996902 -5.403341 17.552869 2.510404 -0.904053 2.091606 -2.088798 -2.980565 6.937868 2.570470 -1.130486 1.584518 4.316071 13.775367 2.166802 1.420851 -0.605874 0.842595 5.109048 22.125259 2.628938 2.153473 -0.757796 1.312967 -0.000579 0.001055 -0.006055 8.043900 0.989294 2.480772 3.484475 12.888348 3.082534 2.427021 0.011880 0.268372 0.386632 -0.036067 -16.795536 1.609928 0.007874 0.037319 1.274590 0.303024 -22.814990 2.130026 0.049430 0.114429 -0.003222 -0.004142 -0.000990 8.038181 1.007421 0.439339 -0.539844 2.437233 -3.363790 2.527053 -0.234443 -0.080974 -1.216798 0.293968 -21.432051 1.931313 -0.179341 -0.117771 -2.089167 0.914068 -31.315311 2.196994 0.041226 -0.161452 -0.003023 -0.004002 0.001106 7.662097 0.616492 -1.366720 -11.421977 -4.565762 1.774674 2.249861 -0.592644 -0.461927 -0.476388 1.022976 -26.797569 1.521802 -0.400859 -0.248310 -6.569366 4.150075 -23.308208 2.446354 -0.396082 -0.528473 -0.003508 -0.001552 0.001036 6.585151 -0.139005 -2.766155 -7.636265 -14.902559 7.648628 1.631426 -0.600635 -0.502819 -3.107496 1.505041 -9.880313 1.227242 -0.468975 -0.457898 -10.440600 8.093881 -34.034481 1.696028 -0.584231 -0.687829 -0.000667 -0.000178 -0.000285 -4.211488 11.612231 -3.873793 0.000147 0.000196 -0.000000 -5.543734 0.000028 -0.000003 16.414995 -8.651727 64.704807 -23.377596 -0.123559 0.033384 -18.858513 13.668049 1.433568 -16.247568 -0.118867 0.036242 15.527771 -5.614468 -5.659865 -2.510386 -0.904104 2.091565 -8.032982 0.411095 -10.627324 -2.579433 -1.121686 1.537412 6.021073 -18.205173 -2.632976 -1.429546 -0.616764 0.819539 7.358597 -27.437073 -2.955558 -2.167628 -0.774659 1.279510 0.009732 0.003693 -0.006316 -8.043822 0.988863 2.481294 1.757597 -8.904040 9.469899 -2.426991 0.011950 0.268473 -0.214607 0.563981 25.826212 -1.609996 0.007943 0.037373 -1.587878 0.327411 3.803779 -2.129974 0.049027 0.114507 -0.001093 0.601995 0.004644 -8.038194 1.006856 0.439859 0.270229 0.089797 3.831978 -2.527000 -0.234053 -0.080881 -1.009389 -0.204106 33.770033 -1.931461 -0.179060 -0.117691 -1.669738 -1.117913 43.615184 -2.196995 0.042810 -0.161368 -0.000883 -0.002841 -0.003729 -7.662142 0.615843 -1.366217 -2.683178 12.383846 4.853185 -2.249902 -0.592033 -0.461827 -0.016011 -0.075583 23.439116 -1.521893 -0.400479 -0.248250 -3.805092 -1.573727 40.627639 -2.446427 -0.395406 -0.528370 0.004919 0.001004 0.007386 -6.585275 -0.139155 -2.765682 -19.593419 12.545300 -0.814808 -1.631420 -0.601032 -0.502745 -3.916623 -2.013069 12.595800 -1.227215 -0.469046 -0.457856 -10.014778 -10.682804 36.182084 -1.696097 -0.584046 -0.687746 0.004298 0.003833 -0.005251 -0.000002 15.167770 -4.080682 0.541589 -2.934213 -2.595868 -0.000001 7.825310 -0.202156 0.895081 -2.828109 -2.686392 -2.925003 2.684883 0.061892 -0.000001 -0.000002 0.000000 -7.794383 2.800995 16.635387 -0.000000 0.000001 -0.000000 6.838630 -2.376999 -14.605498 -0.000000 0.000002 -0.000000 2.925018 2.684791 0.061887 0.000002 0.000000 -0.000000 7.794374 2.801262 16.635426 -0.000001 -0.000002 0.000000 0.000000 0.000000 -0.000000 
4.318201 84.209297 4.888376 -1.345412 7.044433 0.393291 7.276834 -6.057790 0.207885 -6.866886 -13.363679 2.835479 -1.823139 -35.110458 -1.568848 28.879778 13.521569 -2.184583 -1.031195 -37.817066 -1.726819 -19.191259 2.163972 -7.521208 0.202459 -5.287532 8.122426 -0.000001 0.000150 -0.013534 -7.276832 -6.057774 0.207878 -11.806678 2.991960 -9.867786 1.823196 -35.109612 -1.587617 27.409361 0.914493 0.137045 1.031267 -37.817833 -1.710083 -14.119622 -2.047796 9.699521 -0.202447 -5.287759 8.122277 0.000076 -0.000179 -0.222312 -0.000001 2.271337 0.818149 1.480850 0.210447 -0.051659 -0.000001 9.085938 0.955445 0.086358 -1.557482 0.112505 -0.000003 8.765538 -0.142869 7.152462 -0.052454 1.248363 4.211487 11.612242 -3.873799 0.000109 -0.000296 -2.457649 5.543692 0.000050 -0.000005 19.081737 3.833395 -56.509860 23.377405 -0.123473 0.033370 -18.865455 -11.761823 -2.794718 16.247700 -0.118861 0.035828 8.488308 -5.191876 20.416870 2.510407 -0.904042 2.091607 -1.576036 -4.356003 6.414462 2.570465 -1.130474 1.584523 3.961858 12.536174 2.022334 1.420838 -0.605869 0.842593 4.821962 20.862437 2.535530 2.153473 -0.757811 1.312967 -0.000530 0.001063 -0.006139 8.043889 0.989317 2.480772 3.963229 12.012634 4.764341 2.427026 0.011844 0.268365 0.347009 -0.027080 -15.040459 1.609933 0.007867 0.037312 1.170835 0.333363 -21.061957 2.130007 0.049442 0.114431 -0.003281 -0.004158 -0.000963 8.038172 1.007436 0.439339 -0.786684 2.940036 -1.312602 2.527050 -0.234446 -0.080977 -1.103093 0.247948 -19.403128 1.931336 -0.179340 -0.117773 -1.972225 0.852586 -29.288210 2.197009 0.041222 -0.161452 -0.003097 -0.004017 0.001117 7.662086 0.616517 -1.366729 -11.416831 -3.019157 3.887286 2.249851 -0.592647 -0.461933 -0.189287 0.937063 -24.699265 1.521783 -0.400833 -0.248317 -6.274926 3.861860 -21.244508 2.446367 -0.396078 -0.528470 -0.003465 -0.001543 0.001043 6.585135 -0.138991 -2.766156 -9.304575 -11.268440 9.520709 1.631422 -0.600629 -0.502811 -2.682254 1.259194 -8.481522 1.227229 -0.468940 -0.457917 -9.961585 7.473257 -32.022751 1.696028 -0.584244 -0.687833 -0.000704 -0.000185 -0.000156 -4.211486 11.612231 -3.873799 0.000180 0.000215 -0.000000 -5.543742 0.000022 -0.000003 14.174021 -11.363122 58.757488 -23.377579 -0.123563 0.033386 -16.092605 10.250301 0.254912 -16.247580 -0.118849 0.036249 11.803720 -7.382937 -10.325684 -2.510384 -0.904095 2.091562 -9.121375 0.833601 -7.255774 -2.579430 -1.121687 1.537416 5.915671 -16.780231 -2.586350 -1.429542 -0.616745 0.819536 7.384645 -24.048193 -2.892591 -2.167615 -0.774651 1.279515 0.009842 0.003663 -0.006272 -8.043804 0.988882 2.481290 1.529976 -7.788583 7.282489 -2.427002 0.011948 0.268472 -0.488517 1.188221 23.242078 -1.609998 0.007917 0.037379 -3.297693 0.732513 2.197139 -2.129976 0.049047 0.114505 -0.001511 1.265195 0.004735 -8.038179 1.006861 0.439859 -1.198818 0.149576 3.018938 -2.527004 -0.234054 -0.080875 -0.883716 -0.151927 29.866460 -1.931457 -0.179059 -0.117690 -1.554588 -1.054056 39.317117 -2.196997 0.042815 -0.161373 -0.000769 -0.002851 -0.003713 -7.662132 0.615850 -1.366221 -4.683213 9.805563 2.803221 -2.249887 -0.592052 -0.461825 0.416208 0.002663 20.631975 -1.521849 -0.400479 -0.248253 -3.271410 -1.282795 36.541563 -2.446431 -0.395392 -0.528360 0.004980 0.001005 0.007416 -6.585266 -0.139142 -2.765687 -18.526914 10.332963 -3.178493 -1.631423 -0.601038 -0.502741 -3.395491 -1.680284 10.838633 -1.227203 -0.469047 -0.457852 -9.527476 -9.825715 32.259164 -1.696115 -0.584050 -0.687752 0.004368 0.003823 -0.005196 -0.000001 15.167763 -4.080688 -1.749638 -2.654024 -2.415999 -0.000000 7.825296 -0.202158 -0.854911 -2.541424 -2.522999 -2.925001 2.684891 0.061886 0.000000 -0.000000 0.000000 -7.794383 2.801025 16.635382 0.000002 0.000001 -0.000000 6.838628 -2.377007 -14.605494 0.000001 0.000000 -0.000000 2.925018 2.684784 0.061882 0.000002 0.000000 -0.000000 7.794373 2.801270 16.635427 -0.000001 -0.000000 0.000000 0.000001 0.000000 0.000000 
